<mxfile host="app.diagrams.net" modified="2024-01-17T04:02:17.905Z" agent="Mozilla/5.0 (Macintosh; Intel Mac OS X 10_15_7) AppleWebKit/605.1.15 (KHTML, like Gecko) Version/17.1.2 Safari/605.1.15" version="22.1.18" etag="8JDI56kXKSHBms2KzUpG" type="github">
  <diagram name="Page-1" id="APp0cG6JQYRo6mk2IMLD">
    <mxGraphModel>
      <root>
        <mxCell id="0" />
        <mxCell id="1" parent="0" />
      </root>
    </mxGraphModel>
  </diagram>
</mxfile>
